<svg width="40" height="40" viewBox="0 0 40 40" fill="none" xmlns="http://www.w3.org/2000/svg">
<foreignObject x="-18.519" y="-18.5181" width="77.0371" height="77.037"><div xmlns="http://www.w3.org/1999/xhtml" style="backdrop-filter:blur(10px);clip-path:url(#bgblur_0_1534_1080_clip_path);height:100%;width:100%"></div></foreignObject><path data-figma-bg-blur-radius="20" d="M38.518 20.0004C38.518 30.2279 30.227 38.519 19.9995 38.519C9.77198 38.519 1.48096 30.2279 1.48096 20.0004C1.48096 9.77295 9.77198 1.48193 19.9995 1.48193C30.227 1.48193 38.518 9.77295 38.518 20.0004Z" fill="#D9D9D9" fill-opacity="0.1"/>
<foreignObject x="-8.4" y="-8.4" width="56.8" height="56.8"><div xmlns="http://www.w3.org/1999/xhtml" style="backdrop-filter:blur(4.2px);clip-path:url(#bgblur_1_1534_1080_clip_path);height:100%;width:100%"></div></foreignObject><path data-figma-bg-blur-radius="8.4" fill-rule="evenodd" clip-rule="evenodd" d="M18.5185 1.48148C18.5185 0.663282 19.1818 0 20 0C31.0457 0 40 8.9543 40 20C40 31.0457 31.0457 40 20 40C8.9543 40 0 31.0457 0 20C0 19.1818 0.663282 18.5185 1.48148 18.5185C2.29968 18.5185 2.96296 19.1818 2.96296 20C2.96296 29.4093 10.5907 37.037 20 37.037C29.4093 37.037 37.037 29.4093 37.037 20C37.037 10.5907 29.4093 2.96296 20 2.96296C19.1818 2.96296 18.5185 2.29968 18.5185 1.48148Z" fill="white"/>
<path d="M25.8749 18.9537L15.3391 12.8966C14.5298 12.4315 13.5186 13.0129 13.5186 13.9432V26.0569C13.5186 26.9872 14.5298 27.5686 15.3391 27.1035L25.8749 21.0464C26.6837 20.5813 26.6837 19.4184 25.8749 18.9533V18.9537Z" fill="white"/>
<defs>
<clipPath id="bgblur_0_1534_1080_clip_path" transform="translate(18.519 18.5181)"><path d="M38.518 20.0004C38.518 30.2279 30.227 38.519 19.9995 38.519C9.77198 38.519 1.48096 30.2279 1.48096 20.0004C1.48096 9.77295 9.77198 1.48193 19.9995 1.48193C30.227 1.48193 38.518 9.77295 38.518 20.0004Z"/>
</clipPath><clipPath id="bgblur_1_1534_1080_clip_path" transform="translate(8.4 8.4)"><path fill-rule="evenodd" clip-rule="evenodd" d="M18.5185 1.48148C18.5185 0.663282 19.1818 0 20 0C31.0457 0 40 8.9543 40 20C40 31.0457 31.0457 40 20 40C8.9543 40 0 31.0457 0 20C0 19.1818 0.663282 18.5185 1.48148 18.5185C2.29968 18.5185 2.96296 19.1818 2.96296 20C2.96296 29.4093 10.5907 37.037 20 37.037C29.4093 37.037 37.037 29.4093 37.037 20C37.037 10.5907 29.4093 2.96296 20 2.96296C19.1818 2.96296 18.5185 2.29968 18.5185 1.48148Z"/>
</clipPath></defs>
</svg>
